<svg width="1293.312" height="196.61" viewBox="0 0 1293.312 196.61"
	xmlns="http://www.w3.org/2000/svg">
	<g id="svgGroup" stroke-linecap="round" fill-rule="evenodd" font-size="9pt" stroke="#333951" stroke-width="0.25mm" fill="#333951" style="stroke:#333951;stroke-width:0.25mm;fill:#333951">
		<path d="M 383.377 195.339 A 90.723 90.723 0 0 0 399.104 196.608 A 72.556 72.556 0 0 0 411.864 195.437 A 94.019 94.019 0 0 0 426.24 191.616 A 77.364 77.364 0 0 0 434.594 188.144 A 86.561 86.561 0 0 0 453.12 175.872 A 67.601 67.601 0 0 0 462.952 165.383 A 47.519 47.519 0 0 0 464.491 171.023 A 29.86 29.86 0 0 0 472.832 183.808 Q 483.84 193.536 502.784 193.536 Q 518.4 193.536 531.712 184.064 A 61.599 61.599 0 0 0 544.483 171.76 A 80.518 80.518 0 0 0 553.472 157.184 A 101.149 101.149 0 0 0 560.482 137.667 A 135.247 135.247 0 0 0 563.968 116.48 A 112.42 112.42 0 0 0 569.172 115.503 A 97.717 97.717 0 0 0 585.427 110.61 L 568.064 192.512 L 604.928 192.512 L 622.336 110.336 Q 625.408 99.84 630.528 93.312 A 20.881 20.881 0 0 1 633.922 89.835 A 13.168 13.168 0 0 1 642.304 86.784 A 12.578 12.578 0 0 1 642.718 86.791 Q 649.761 87.023 651.168 95.238 A 27.394 27.394 0 0 1 651.52 99.84 A 33.644 33.644 0 0 1 651.516 100.338 Q 651.438 105.613 649.728 113.92 Q 647.936 122.624 645.888 131.584 Q 645.376 133.376 643.968 139.776 Q 642.56 146.176 641.28 152.96 A 92.868 92.868 0 0 0 641.076 154.077 Q 640.55 157.065 640.281 159.771 A 54.203 54.203 0 0 0 640 165.12 A 38.485 38.485 0 0 0 640.178 168.863 A 29.204 29.204 0 0 0 647.296 185.728 A 21.338 21.338 0 0 0 653.342 190.49 Q 656.975 192.433 661.669 193.315 A 46.32 46.32 0 0 0 670.208 194.048 A 37.586 37.586 0 0 0 685.301 190.839 A 49.923 49.923 0 0 0 695.936 184.448 A 34.549 34.549 0 0 0 699.823 180.912 A 54.518 54.518 0 0 0 705.922 173.011 A 37.443 37.443 0 0 0 707.032 177.126 A 24.025 24.025 0 0 0 712.576 186.368 A 24.663 24.663 0 0 0 723.376 192.829 A 31.921 31.921 0 0 0 732.416 194.048 A 46.845 46.845 0 0 0 749.604 190.664 A 65.273 65.273 0 0 0 761.856 184.192 A 36.394 36.394 0 0 0 763.083 183.341 A 46.603 46.603 0 0 0 768.681 178.434 L 765.696 192.512 L 802.56 192.512 L 823.04 95.232 A 125.949 125.949 0 0 1 824.922 93.547 Q 827.898 90.937 830.244 89.254 A 31.428 31.428 0 0 1 832.64 87.68 A 13.715 13.715 0 0 1 833.058 87.444 Q 836.651 85.504 841.728 85.504 Q 843.776 85.504 844.544 87.04 Q 845.312 88.576 846.08 91.904 A 32.664 32.664 0 0 0 846.828 94.934 Q 847.248 96.325 847.76 97.466 A 13.04 13.04 0 0 0 849.024 99.712 A 4.819 4.819 0 0 0 849.575 100.354 Q 851.663 102.4 856.576 102.4 A 23.19 23.19 0 0 0 860.445 102.091 A 15.881 15.881 0 0 0 870.144 96.768 Q 875.008 91.136 875.008 83.712 A 25.705 25.705 0 0 0 874.978 82.456 A 20.115 20.115 0 0 0 870.272 70.144 A 15.106 15.106 0 0 0 863.11 65.337 A 19.174 19.174 0 0 0 857.344 64.512 Q 849.152 64.512 842.112 68.608 Q 835.072 72.704 826.368 80.384 L 829.696 64.512 L 792.832 64.512 L 775.37 146.879 A 43.191 43.191 0 0 1 773.314 152.565 A 33.399 33.399 0 0 1 766.208 162.944 Q 759.808 169.216 752.384 169.216 A 27.62 27.62 0 0 1 751.687 169.207 Q 748.593 169.129 746.537 168.345 A 7.063 7.063 0 0 1 744.32 167.04 Q 742.553 165.459 742.07 162.324 A 16.986 16.986 0 0 1 741.888 159.744 Q 741.888 155.392 742.912 151.552 L 759.296 74.752 L 774.656 74.752 L 776.704 64.512 L 761.344 64.512 L 770.048 24.064 L 732.16 29.184 L 724.48 64.512 L 716.032 64.512 L 713.984 74.752 L 722.432 74.752 L 707.072 146.688 Q 702.464 158.208 697.856 163.712 A 14.779 14.779 0 0 1 691.401 168.272 A 17.3 17.3 0 0 1 685.568 169.216 A 18.121 18.121 0 0 1 683.022 169.049 Q 679.375 168.53 677.632 166.4 A 8.742 8.742 0 0 1 676.471 164.533 Q 675.328 162.07 675.328 158.464 A 25.354 25.354 0 0 1 675.344 157.569 Q 675.444 154.749 676.151 150.762 A 103.714 103.714 0 0 1 676.992 146.56 Q 678.656 139.008 680.704 131.072 Q 684.032 118.016 685.824 108.928 A 118.311 118.311 0 0 0 685.934 108.362 Q 687.616 99.608 687.616 92.416 A 49.557 49.557 0 0 0 687.448 88.267 Q 687.08 83.882 685.9 80.281 A 22.428 22.428 0 0 0 679.936 70.656 A 24.727 24.727 0 0 0 679.704 70.442 Q 672.06 63.488 659.2 63.488 A 36.688 36.688 0 0 0 639.912 68.811 A 46.644 46.644 0 0 0 629.248 77.824 L 632.064 64.512 L 595.2 64.512 L 587.926 98.824 A 99.556 99.556 0 0 1 587.008 99.2 A 79.073 79.073 0 0 1 582.233 100.973 Q 574.119 103.68 567.552 103.68 Q 565.504 103.68 564.736 103.424 L 564.736 103.168 Q 564.736 62.208 531.968 62.208 Q 507.904 62.208 492.032 77.696 Q 476.16 93.184 468.992 114.432 A 173.731 173.731 0 0 0 467.635 118.627 Q 464.849 127.633 463.399 135.924 A 99.708 99.708 0 0 0 461.84 151.713 A 64.183 64.183 0 0 1 444.16 165.376 Q 431.36 172.032 416.256 172.032 A 51.422 51.422 0 0 1 411.221 171.796 Q 406.651 171.346 402.983 170.037 A 20.71 20.71 0 0 1 392.192 161.792 A 34.971 34.971 0 0 1 388.183 152.97 Q 385.536 144.365 385.536 132.096 Q 385.536 105.984 393.088 77.824 A 227.81 227.81 0 0 1 395.186 70.487 Q 402.278 47.19 412.928 31.104 A 85.366 85.366 0 0 1 413.563 30.158 Q 420.031 20.666 426.852 16.289 A 21.85 21.85 0 0 1 438.784 12.544 Q 442.768 12.544 445.692 13.573 A 11.366 11.366 0 0 1 450.688 16.896 A 14.983 14.983 0 0 1 453.836 23.162 A 21.009 21.009 0 0 1 454.4 28.16 Q 454.4 35.584 450.816 42.496 A 33.413 33.413 0 0 1 448.911 45.737 Q 447.643 47.626 446.264 49.014 A 13.961 13.961 0 0 1 442.624 51.712 Q 448 58.368 457.216 58.368 A 22.344 22.344 0 0 0 461.551 57.97 A 14.088 14.088 0 0 0 470.784 52.096 A 20.696 20.696 0 0 0 473.031 47.838 Q 474.143 45.004 474.667 41.53 A 45.042 45.042 0 0 0 475.136 34.816 Q 475.136 17.408 463.36 8.96 A 38.796 38.796 0 0 0 458.347 5.916 Q 452.506 2.94 445.225 1.603 A 71.146 71.146 0 0 0 432.384 0.512 A 84.244 84.244 0 0 0 429.029 0.578 A 65.46 65.46 0 0 0 381.312 22.656 Q 361.216 44.8 352.128 75.776 Q 343.04 106.752 343.04 133.632 A 159.581 159.581 0 0 0 343.093 137.765 Q 343.885 168.332 356.608 182.016 A 39.697 39.697 0 0 0 368.504 190.697 Q 375.045 193.869 383.377 195.339 Z M 954.88 76.288 L 954.88 78.08 L 957.696 64.512 L 994.56 64.512 L 976.128 151.552 Q 975.104 155.392 975.104 159.744 A 16.671 16.671 0 0 0 975.606 164.033 Q 977.4 170.752 985.6 170.752 A 14.386 14.386 0 0 0 995.445 166.855 A 21.725 21.725 0 0 0 998.016 164.096 Q 1002.654 158.214 1005.593 149.132 A 73.78 73.78 0 0 0 1006.336 146.688 L 1021.696 74.752 L 1013.248 74.752 L 1015.296 64.512 L 1023.744 64.512 L 1031.424 29.184 L 1069.312 24.064 L 1060.608 64.512 L 1075.968 64.512 L 1073.92 74.752 L 1058.56 74.752 L 1042.176 151.552 Q 1041.152 155.392 1041.152 159.744 A 16.986 16.986 0 0 0 1041.334 162.324 Q 1041.817 165.459 1043.584 167.04 A 7.063 7.063 0 0 0 1045.801 168.345 Q 1047.857 169.129 1050.951 169.207 A 27.62 27.62 0 0 0 1051.648 169.216 Q 1059.072 169.216 1065.472 162.944 A 33.399 33.399 0 0 0 1071.383 155.028 A 76.225 76.225 0 0 1 1071.36 152.832 A 106.861 106.861 0 0 1 1074.273 128.559 A 136.979 136.979 0 0 1 1078.912 113.024 Q 1086.464 92.16 1101.44 77.696 Q 1116.416 63.232 1137.152 63.232 Q 1146.949 63.232 1152.063 66.355 A 13.495 13.495 0 0 1 1152.768 66.816 Q 1157.888 70.4 1157.888 76.288 L 1157.888 78.08 L 1160.704 64.512 L 1197.568 64.512 L 1179.136 151.552 Q 1178.112 155.392 1178.112 159.744 A 16.671 16.671 0 0 0 1178.614 164.033 Q 1180.408 170.752 1188.608 170.752 A 14.386 14.386 0 0 0 1198.453 166.855 A 21.725 21.725 0 0 0 1201.024 164.096 Q 1205.662 158.214 1208.601 149.132 A 73.78 73.78 0 0 0 1209.344 146.688 L 1220.096 146.688 Q 1211.445 171.939 1199.057 182.35 A 35.95 35.95 0 0 1 1196.672 184.192 Q 1182.72 194.048 1168.64 194.048 Q 1157.888 194.048 1151.36 188.032 Q 1144.832 182.016 1143.552 170.496 Q 1136.128 180.992 1127.04 187.52 A 34.68 34.68 0 0 1 1110.361 193.779 A 44.497 44.497 0 0 1 1105.408 194.048 A 35.052 35.052 0 0 1 1092.413 191.706 A 32.279 32.279 0 0 1 1081.088 184.064 A 30.323 30.323 0 0 1 1074.438 173.172 A 48.888 48.888 0 0 1 1073.768 171.158 A 78.158 78.158 0 0 1 1072.389 173.122 Q 1067.733 179.438 1062.347 183.341 A 36.394 36.394 0 0 1 1061.12 184.192 A 65.273 65.273 0 0 1 1048.868 190.664 A 46.845 46.845 0 0 1 1031.68 194.048 A 31.921 31.921 0 0 1 1022.64 192.829 A 24.663 24.663 0 0 1 1011.84 186.368 A 24.025 24.025 0 0 1 1006.296 177.126 A 37.443 37.443 0 0 1 1005.017 172.154 A 83.804 83.804 0 0 1 1004.756 172.539 Q 1000.662 178.473 996.049 182.35 A 35.95 35.95 0 0 1 993.664 184.192 Q 979.712 194.048 965.632 194.048 Q 954.88 194.048 948.352 188.032 Q 941.824 182.016 940.544 170.496 Q 933.12 180.992 924.032 187.52 A 34.68 34.68 0 0 1 907.353 193.779 A 44.497 44.497 0 0 1 902.4 194.048 A 35.052 35.052 0 0 1 889.405 191.706 A 32.279 32.279 0 0 1 878.08 184.064 Q 870.746 176.537 868.941 162.608 A 76.225 76.225 0 0 1 868.352 152.832 A 106.861 106.861 0 0 1 871.265 128.559 A 136.979 136.979 0 0 1 875.904 113.024 Q 883.456 92.16 898.432 77.696 Q 913.408 63.232 934.144 63.232 Q 943.941 63.232 949.055 66.355 A 13.495 13.495 0 0 1 949.76 66.816 Q 954.88 70.4 954.88 76.288 Z M 0 192.512 L 65.024 16.64 A 65.805 65.805 0 0 0 48.486 24.63 A 53.98 53.98 0 0 0 34.944 37.76 Q 24.32 52.48 24.32 74.24 Q 24.32 83.968 26.112 87.552 Q 27.83 90.988 27.901 91.836 A 0.821 0.821 0 0 1 27.904 91.904 A 46.956 46.956 0 0 1 17.651 90.887 Q 0.512 87.036 0.512 68.608 A 45.286 45.286 0 0 1 4.576 50.213 Q 7.264 44.117 11.729 38.001 A 82.277 82.277 0 0 1 12.672 36.736 A 92.544 92.544 0 0 1 40.317 12.613 A 108.052 108.052 0 0 1 43.904 10.624 A 89.463 89.463 0 0 1 63.983 2.771 A 73.299 73.299 0 0 1 81.92 0.512 Q 91.392 0.512 101.376 4.096 L 95.488 139.008 L 151.808 4.096 L 188.672 4.096 L 161.792 192.512 L 124.928 192.512 L 141.312 77.568 L 93.184 192.512 L 58.112 192.512 L 63.232 77.056 L 20.48 192.512 L 0 192.512 Z M 282.624 146.688 L 291.328 146.688 A 131.674 131.674 0 0 1 274.271 169.582 Q 262.144 182.388 248.098 188.491 A 67.442 67.442 0 0 1 220.928 194.048 Q 206.21 194.048 196.591 188.099 A 32.101 32.101 0 0 1 191.488 184.192 A 30.198 30.198 0 0 1 183.783 172.031 Q 182.044 167.132 181.389 161.084 A 71.926 71.926 0 0 1 180.992 153.344 Q 180.992 135.68 187.904 114.432 Q 194.816 93.184 210.432 77.696 A 52.84 52.84 0 0 1 244.949 62.393 A 70.707 70.707 0 0 1 250.112 62.208 Q 278.272 62.208 278.272 86.784 Q 278.272 101.12 270.08 113.152 A 60.222 60.222 0 0 1 249.163 132.019 A 70.132 70.132 0 0 1 248.32 132.48 Q 234.752 139.776 219.392 140.8 Q 218.95 147.425 218.89 150.24 A 37.533 37.533 0 0 0 218.88 151.04 Q 218.88 160.861 221.547 165.739 A 10.632 10.632 0 0 0 223.232 168.064 A 12.97 12.97 0 0 0 228.017 171.107 Q 231.802 172.544 237.312 172.544 A 49.87 49.87 0 0 0 249.025 171.23 A 38.252 38.252 0 0 0 260.992 166.144 Q 268.153 161.494 276.328 153.33 A 175.764 175.764 0 0 0 282.624 146.688 Z M 1234.432 133.376 L 1253.888 5.376 L 1293.312 0 L 1256.192 133.376 L 1234.432 133.376 Z M 513.024 170.496 Q 519.168 170.496 525.312 163.456 Q 531.456 156.416 536.064 144.256 Q 540.672 132.096 542.72 117.248 Q 536.584 115.885 535.895 108.469 A 21.347 21.347 0 0 1 535.808 106.496 A 21.294 21.294 0 0 1 536.368 101.426 Q 537.916 95.116 543.744 92.672 Q 543.351 86.185 542.052 82.792 A 9.75 9.75 0 0 0 541.184 81.024 Q 539.332 78.13 534.968 77.853 A 15.035 15.035 0 0 0 534.016 77.824 Q 525.568 77.824 517.632 90.112 Q 509.696 102.4 504.832 119.552 Q 501.013 133.019 500.193 143.961 A 77.597 77.597 0 0 0 499.968 149.76 A 84.338 84.338 0 0 0 500.123 155.077 Q 500.628 163.038 502.784 166.272 Q 505.6 170.496 513.024 170.496 Z M 1143.296 146.688 L 1155.584 88.832 Q 1155.584 85.504 1153.024 82.304 A 8.078 8.078 0 0 0 1148.858 79.592 Q 1147.188 79.104 1145.088 79.104 A 17.987 17.987 0 0 0 1134.287 82.818 Q 1131.558 84.813 1129.013 87.88 A 43.612 43.612 0 0 0 1126.656 91.008 Q 1118.464 102.912 1113.856 119.68 Q 1110.193 133.009 1109.442 143.831 A 78.264 78.264 0 0 0 1109.248 149.248 Q 1109.248 162.048 1112.96 165.632 Q 1116.672 169.216 1122.048 169.216 Q 1127.604 169.216 1133.064 164.682 A 31.093 31.093 0 0 0 1134.72 163.2 Q 1140.992 157.184 1143.296 146.688 Z M 940.288 146.688 L 952.576 88.832 Q 952.576 85.504 950.016 82.304 A 8.078 8.078 0 0 0 945.85 79.592 Q 944.18 79.104 942.08 79.104 A 17.987 17.987 0 0 0 931.279 82.818 Q 928.55 84.813 926.005 87.88 A 43.612 43.612 0 0 0 923.648 91.008 Q 915.456 102.912 910.848 119.68 Q 907.185 133.009 906.434 143.831 A 78.264 78.264 0 0 0 906.24 149.248 Q 906.24 162.048 909.952 165.632 Q 913.664 169.216 919.04 169.216 Q 924.596 169.216 930.056 164.682 A 31.093 31.093 0 0 0 931.712 163.2 Q 937.984 157.184 940.288 146.688 Z M 221.44 128.512 Q 230.912 128 239.488 121.856 Q 248.064 115.712 253.312 106.24 Q 258.56 96.768 258.56 86.272 Q 258.56 75.776 252.16 75.776 Q 244.254 75.776 236.631 87.644 A 70.912 70.912 0 0 0 234.112 91.904 Q 225.28 108.032 221.44 128.512 Z M 1223.741 188.219 A 19.693 19.693 0 0 0 1238.016 194.048 A 23.476 23.476 0 0 0 1238.411 194.045 A 19.265 19.265 0 0 0 1252.352 188.032 Q 1258.24 182.016 1258.24 173.568 A 24.07 24.07 0 0 0 1258.239 173.305 A 19.48 19.48 0 0 0 1252.352 159.232 Q 1246.464 153.344 1238.016 153.344 A 24.288 24.288 0 0 0 1237.983 153.344 A 19.934 19.934 0 0 0 1223.552 159.232 A 23.232 23.232 0 0 0 1223.273 159.509 A 19.27 19.27 0 0 0 1217.536 173.568 Q 1217.536 182.016 1223.552 188.032 A 24.064 24.064 0 0 0 1223.741 188.219 Z" vector-effect="non-scaling-stroke"/>
	</g>
</svg>